<svg xmlns="http://www.w3.org/2000/svg" width="318.64" height="94.319" viewBox="0 0 318.64 94.319">
  <g id="App_logo" data-name="App logo" transform="translate(-416.769 -1520.826)">
    <g id="Group_582" data-name="Group 582" transform="translate(-142 138.4)">
      <g id="Group_554" data-name="Group 554" transform="translate(608.992 1421.818)">
        <path id="Path_356" data-name="Path 356" d="M658.418,1463.994c-.045-1.456-.681-3.559,1-4.017s1.939,1.8,2.716,2.893c2.067,2.9,4.115,5.852,5.081,9.209,2.044,7.1-1.73,12.4-7.189,17.1a19.489,19.489,0,0,1-6.446,3.662,59.6,59.6,0,0,0-16.59,8.744c-1.451,1.093-2.029,1.03-2.656-.6-1.676-4.352.273-10.92,4.674-14.1,5.146-3.715,10.607-7.1,14.053-12.324.816-1.236,1.5-.779,1.814.346.746,2.712-.4,5.1-1.942,7.326-1.184,1.712-2.656,3.271-4.072,4.986,8.879-.954,15.392-7.77,12.43-16.824A22.983,22.983,0,0,0,658.418,1463.994Z" transform="translate(-633.74 -1447.398)" fill="#fa9b35"/>
        <path id="Path_357" data-name="Path 357" d="M685.406,1457.521q.283,1.417.564,2.83s-.139.182-.139.182l.212.127c.683,5.5-.453,8.908-4.21,11.555.517-5.338.346-10.315-1.614-15.1-1.391-3.4-2.814-6.8-3.943-10.274-.728-2.24-.436-4.419,2.526-5.606l2.921,7.646Z" transform="translate(-647.669 -1441.229)" fill="#fa9b35"/>
      </g>
      <g id="Group_555" data-name="Group 555" transform="translate(560.491 1421.833)">
        <path id="Path_358" data-name="Path 358" d="M577.1,1464.011c.045-1.456.669-3.56-.979-4.017s-1.9,1.8-2.658,2.894c-2.022,2.9-4.028,5.854-4.975,9.211-2,7.1,1.688,12.4,7.027,17.1a18.942,18.942,0,0,0,6.3,3.659,57.852,57.852,0,0,1,16.227,8.737c1.419,1.092,1.984,1.029,2.6-.6,1.642-4.352-.263-10.92-4.566-14.094-5.034-3.713-10.374-7.1-13.744-12.318-.8-1.235-1.472-.778-1.775.346-.731,2.713.391,5.1,1.9,7.325,1.158,1.712,2.6,3.27,3.983,4.984-8.687-.95-15.055-7.764-12.153-16.818A23.244,23.244,0,0,1,577.1,1464.011Z" transform="translate(-563.516 -1447.418)" fill="#fa9b35"/>
        <path id="Path_359" data-name="Path 359" d="M562.147,1457.545q-.277,1.416-.553,2.829s.137.182.137.182l-.208.127c-.67,5.5.439,8.907,4.113,11.552-.5-5.338-.333-10.314,1.586-15.1,1.363-3.4,2.756-6.8,3.863-10.276.713-2.239.429-4.418-2.469-5.605l-2.861,7.648Z" transform="translate(-561.339 -1441.25)" fill="#fa9b35"/>
      </g>
      <g id="Group_557" data-name="Group 557" transform="translate(584.788 1431.824)">
        <circle id="Ellipse_40" data-name="Ellipse 40" cx="4.788" cy="4.788" r="4.788" transform="translate(13.389 0)" fill="#fff"/>
        <g id="Group_556" data-name="Group 556" transform="translate(0 8.657)">
          <path id="Path_360" data-name="Path 360" d="M616.106,1472.523c0,2.7-.573,7.267-.479,11.429,4.159-4.351,15.127-14.151,19.279-12.843-3.782-1.191-8.064-2.328-12.129-1.613-2.434.429-6.24,2.977-6.4,3.03l-.271,0a3,3,0,0,1-.483-.213c-2.044-1.152-3.431-2.467-5.856-2.943-4.049-.8-8.354.255-12.158,1.371,4.176-1.225,13.947,8.781,18.018,13.214.178-4.159.429-8.728.479-11.429" transform="translate(-597.609 -1469.088)" fill="#fff"/>
        </g>
      </g>
      <g id="Group_559" data-name="Group 559" transform="translate(595.893 1409.67)">
        <circle id="Ellipse_41" data-name="Ellipse 41" cx="1.922" cy="1.922" r="1.922" transform="translate(5.259)" fill="#fff"/>
        <g id="Group_558" data-name="Group 558" transform="translate(0 3.352)">
          <path id="Path_361" data-name="Path 361" d="M621.637,1429.592c.051,1.083-.089,2.925.03,4.592,1.583-1.825,5.79-5.968,7.48-5.524a10.536,10.536,0,0,0-4.9-.411,10.064,10.064,0,0,0-2.508,1.339l-.108,0a1.189,1.189,0,0,1-.2-.076,7.477,7.477,0,0,0-2.4-1.067,10.542,10.542,0,0,0-4.849.786c1.651-.572,5.763,3.25,7.482,4.948-.01-1.671,0-3.508-.03-4.592" transform="translate(-614.185 -1428.099)" fill="#fff"/>
        </g>
      </g>
      <g id="Group_561" data-name="Group 561" transform="translate(578.706 1421.675)">
        <circle id="Ellipse_42" data-name="Ellipse 42" cx="1.55" cy="1.55" r="1.55" transform="translate(4.379 0)" fill="#fa9b35"/>
        <g id="Group_560" data-name="Group 560" transform="translate(0 2.722)">
          <path id="Path_362" data-name="Path 362" d="M594.5,1446.271c-.024.874-.248,2.347-.253,3.694,1.383-1.372,5.016-4.449,6.349-3.989a8.486,8.486,0,0,0-3.911-.626,8.106,8.106,0,0,0-2.1.925l-.087,0a.929.929,0,0,1-.155-.073,6.017,6.017,0,0,0-1.869-1,8.486,8.486,0,0,0-3.946.339c1.362-.36,4.437,2.961,5.716,4.431.093-1.344.214-2.82.253-3.694" transform="translate(-588.53 -1445.077)" fill="#fa9b35"/>
        </g>
      </g>
      <g id="Group_563" data-name="Group 563" transform="translate(582.154 1401.212)">
        <circle id="Ellipse_43" data-name="Ellipse 43" cx="1.55" cy="1.55" r="1.55" transform="translate(4.379 0)" fill="#fa9b35"/>
        <g id="Group_562" data-name="Group 562" transform="translate(0 2.722)">
          <path id="Path_363" data-name="Path 363" d="M599.647,1415.727c-.025.874-.249,2.347-.254,3.694,1.383-1.372,5.017-4.449,6.349-3.989a8.484,8.484,0,0,0-3.91-.626,8.112,8.112,0,0,0-2.1.925l-.087,0a.955.955,0,0,1-.155-.073,6.015,6.015,0,0,0-1.869-1,8.487,8.487,0,0,0-3.946.339c1.362-.36,4.438,2.961,5.716,4.431.094-1.344.214-2.82.254-3.694" transform="translate(-593.677 -1414.532)" fill="#fa9b35"/>
        </g>
      </g>
      <g id="Group_565" data-name="Group 565" transform="translate(618.509 1421.7)">
        <circle id="Ellipse_44" data-name="Ellipse 44" cx="1.55" cy="1.55" r="1.55" transform="translate(4.169)" fill="#fa9b35"/>
        <g id="Group_564" data-name="Group 564" transform="translate(0 2.585)">
          <path id="Path_364" data-name="Path 364" d="M653.961,1446.224c.07.872.006,2.359.146,3.7,1.227-1.513,4.508-4.963,5.881-4.65a8.5,8.5,0,0,0-3.955-.2,8.106,8.106,0,0,0-1.985,1.146l-.087.006a.958.958,0,0,1-.162-.056,6.03,6.03,0,0,0-1.966-.8,8.494,8.494,0,0,0-3.887.762c1.316-.505,4.731,2.466,6.161,3.788-.052-1.346-.092-2.826-.146-3.7" transform="translate(-647.946 -1444.91)" fill="#fa9b35"/>
        </g>
      </g>
      <g id="Group_567" data-name="Group 567" transform="translate(612.33 1401.214)">
        <circle id="Ellipse_45" data-name="Ellipse 45" cx="1.55" cy="1.55" r="1.55" transform="translate(4.352)" fill="#fa9b35"/>
        <g id="Group_566" data-name="Group 566" transform="translate(0 2.772)">
          <path id="Path_365" data-name="Path 365" d="M644.7,1415.753c-.01.874-.21,2.35-.194,3.7,1.361-1.395,4.943-4.53,6.283-4.093a8.5,8.5,0,0,0-3.921-.562,8.129,8.129,0,0,0-2.081.959H644.7a1,1,0,0,1-.156-.071,6.025,6.025,0,0,0-1.885-.972,8.5,8.5,0,0,0-3.94.4c1.356-.383,4.485,2.889,5.788,4.337.072-1.345.168-2.824.194-3.7" transform="translate(-638.722 -1414.61)" fill="#fa9b35"/>
        </g>
      </g>
      <g id="Group_569" data-name="Group 569" transform="translate(558.769 1407.507)">
        <circle id="Ellipse_46" data-name="Ellipse 46" cx="2.12" cy="2.12" r="2.12" transform="translate(5.91)" fill="#fff"/>
        <g id="Group_568" data-name="Group 568" transform="translate(0 3.861)">
          <path id="Path_366" data-name="Path 366" d="M566.964,1427.121c.007,1.2-.23,3.22-.176,5.061,1.828-1.939,6.652-6.313,8.494-5.747a11.609,11.609,0,0,0-5.375-.675,11.085,11.085,0,0,0-2.824,1.362h-.12a1.3,1.3,0,0,1-.214-.092,8.263,8.263,0,0,0-2.6-1.285,11.618,11.618,0,0,0-5.379.646c1.845-.556,6.2,3.843,8.019,5.792.066-1.842.162-3.865.176-5.061" transform="translate(-558.769 -1425.63)" fill="#fff"/>
        </g>
      </g>
      <g id="Group_571" data-name="Group 571" transform="translate(633.637 1407.555)">
        <circle id="Ellipse_47" data-name="Ellipse 47" cx="2.12" cy="2.12" r="2.12" transform="translate(5.886)" fill="#fff"/>
        <g id="Group_570" data-name="Group 570" transform="translate(0 3.843)">
          <path id="Path_367" data-name="Path 367" d="M678.73,1427.182c.019,1.2-.2,3.221-.128,5.063,1.809-1.957,6.593-6.375,8.439-5.827a11.621,11.621,0,0,0-5.381-.625,11.1,11.1,0,0,0-2.811,1.389h-.12a1.261,1.261,0,0,1-.215-.091,8.266,8.266,0,0,0-2.614-1.26,11.631,11.631,0,0,0-5.373.7c1.84-.573,6.239,3.784,8.074,5.717.048-1.842.125-3.867.128-5.062" transform="translate(-670.528 -1425.673)" fill="#fff"/>
        </g>
      </g>
      <g id="Group_573" data-name="Group 573" transform="translate(564.268 1389.034)">
        <circle id="Ellipse_48" data-name="Ellipse 48" cx="2.12" cy="2.12" r="2.12" transform="translate(5.911)" fill="#fff"/>
        <g id="Group_572" data-name="Group 572" transform="translate(0 3.86)">
          <path id="Path_368" data-name="Path 368" d="M575.173,1399.545c.007,1.2-.232,3.219-.177,5.06,1.828-1.939,6.654-6.311,8.5-5.745a11.622,11.622,0,0,0-5.375-.677,11.086,11.086,0,0,0-2.824,1.361h-.12a1.374,1.374,0,0,1-.214-.093,8.252,8.252,0,0,0-2.6-1.285,11.628,11.628,0,0,0-5.379.644c1.846-.555,6.2,3.845,8.018,5.795.066-1.842.163-3.865.177-5.06" transform="translate(-566.978 -1398.052)" fill="#fff"/>
        </g>
      </g>
      <g id="Group_575" data-name="Group 575" transform="translate(627.601 1390.974)">
        <circle id="Ellipse_49" data-name="Ellipse 49" cx="2.12" cy="2.12" r="2.12" transform="translate(5.917)" fill="#fff"/>
        <g id="Group_574" data-name="Group 574" transform="translate(0 3.851)">
          <path id="Path_369" data-name="Path 369" d="M669.71,1402.437c0,1.2-.24,3.219-.19,5.06,1.833-1.934,6.669-6.294,8.51-5.724a11.625,11.625,0,0,0-5.373-.69,11.12,11.12,0,0,0-2.828,1.354h-.119a1.307,1.307,0,0,1-.214-.093,8.249,8.249,0,0,0-2.6-1.292,11.618,11.618,0,0,0-5.38.63c1.847-.55,6.192,3.861,8,5.815.07-1.841.172-3.865.19-5.06" transform="translate(-661.517 -1400.934)" fill="#fff"/>
        </g>
      </g>
      <g id="Group_577" data-name="Group 577" transform="translate(579.258 1382.426)">
        <circle id="Ellipse_50" data-name="Ellipse 50" cx="1.251" cy="1.251" r="1.251" transform="translate(3.42)" fill="#fa9b35"/>
        <g id="Group_576" data-name="Group 576" transform="translate(0 2.176)">
          <path id="Path_370" data-name="Path 370" d="M594.2,1386.651c.035.706-.054,1.9.026,2.989,1.028-1.19,3.761-3.891,4.861-3.605a6.86,6.86,0,0,0-3.186-.261,6.563,6.563,0,0,0-1.63.875l-.071,0a.8.8,0,0,1-.129-.049,4.867,4.867,0,0,0-1.567-.691,6.868,6.868,0,0,0-3.155.518c1.074-.375,3.755,2.108,4.876,3.211-.009-1.087,0-2.283-.026-2.989" transform="translate(-589.354 -1385.674)" fill="#fa9b35"/>
        </g>
      </g>
      <g id="Group_579" data-name="Group 579" transform="translate(618.167 1383.394)">
        <circle id="Ellipse_51" data-name="Ellipse 51" cx="1.251" cy="1.251" r="1.251" transform="translate(3.407)" fill="#fa9b35"/>
        <g id="Group_578" data-name="Group 578" transform="translate(0 2.156)">
          <path id="Path_371" data-name="Path 371" d="M652.286,1388.085c.039.7-.04,1.9.047,2.988,1.02-1.2,3.733-3.918,4.835-3.64a6.857,6.857,0,0,0-3.188-.239,6.551,6.551,0,0,0-1.624.887l-.07,0a.883.883,0,0,1-.129-.048,4.861,4.861,0,0,0-1.572-.68,6.858,6.858,0,0,0-3.151.541c1.07-.383,3.77,2.081,4.9,3.175-.016-1.087-.019-2.283-.047-2.988" transform="translate(-647.435 -1387.089)" fill="#fa9b35"/>
        </g>
      </g>
      <g id="Group_581" data-name="Group 581" transform="translate(593.35 1384.834)">
        <circle id="Ellipse_52" data-name="Ellipse 52" cx="2.576" cy="2.576" r="2.576" transform="translate(7.047 0)" fill="#fa9b35"/>
        <g id="Group_580" data-name="Group 580" transform="translate(0 4.492)">
          <path id="Path_372" data-name="Path 372" d="M620.374,1394.726c.068,1.451-.119,3.919.04,6.152,2.121-2.446,7.759-8,10.023-7.4a14.13,14.13,0,0,0-6.558-.551,13.552,13.552,0,0,0-3.36,1.795l-.145.006a1.647,1.647,0,0,1-.265-.1,10.028,10.028,0,0,0-3.223-1.43,14.12,14.12,0,0,0-6.5,1.054c2.212-.767,7.722,4.354,10.025,6.63-.013-2.239,0-4.7-.04-6.152" transform="translate(-610.389 -1392.726)" fill="#fa9b35"/>
        </g>
      </g>
    </g>
    <g id="Group_583" data-name="Group 583">
      <path id="Path_373" data-name="Path 373" d="M530.442,1557.6a9.062,9.062,0,0,0,6.95.273c2.061-.783,2.167-3.693.162-5.172a21.984,21.984,0,0,0-3.888-2c-1.468-.68-3.017-1.2-4.448-1.943-4.923-2.566-4.111-8.8-.651-11.467,3.8-2.928,11.152-2.577,14.642.735a5.571,5.571,0,0,1,1.842,4.193,3.192,3.192,0,0,1-2.442,3.253,3.08,3.08,0,0,1-3.449-1.27,3.169,3.169,0,0,1,.129-3.935c.187-.247.411-.467.619-.7-1.4-1.152-5.258-1.309-6.632-.29a3.125,3.125,0,0,0,.127,4.718,15.973,15.973,0,0,0,3.511,2.007c1.7.806,3.542,1.337,5.159,2.271a6.567,6.567,0,0,1,1.145,10.775c-3.976,3.736-12.636,3.532-16.27-.556a7.686,7.686,0,0,1-1.494-3.81c-.244-1.579.759-2.659,2.275-3.15a3.035,3.035,0,0,1,3.481,1.161,3.341,3.341,0,0,1,.014,3.961C531.016,1556.944,530.767,1557.207,530.442,1557.6Z" fill="#fa9b35"/>
      <path id="Path_374" data-name="Path 374" d="M578.077,1544.5a8.07,8.07,0,0,1,6.23-2.6,6.563,6.563,0,0,1,6.629,4.547,15.172,15.172,0,0,1,.454,8.963c-1.406,5.957-7.893,8.344-12.866,4.233v4.891l1.828.239v3.216h-9.471c-.6-2.863-.433-3.2,1.686-3.447v-18.831l-1.789-.151v-3.328a36.439,36.439,0,0,1,5.53.1C576.952,1542.425,577.422,1543.649,578.077,1544.5Zm.313,7.305c0,.943.045,1.889-.01,2.829a2.96,2.96,0,0,0,2.286,3.161,3.251,3.251,0,0,0,3.792-1.162c1.771-2.233,1.6-7.667-.317-9.786a2.838,2.838,0,0,0-3.36-1.025,3.305,3.305,0,0,0-2.392,3.154C578.4,1549.916,578.39,1550.859,578.39,1551.8Z" fill="#fa9b35"/>
      <path id="Path_375" data-name="Path 375" d="M593.883,1567.851v-3.033l1.937-.3v-18.772l-1.914-.218v-3.309c1.834,0,3.6-.042,5.367.034.353.016.764.42,1.008.749a11.817,11.817,0,0,1,.862,1.632,8.15,8.15,0,0,1,6.377-2.74,6.553,6.553,0,0,1,6.624,4.576,14.632,14.632,0,0,1,.069,10.027c-1.882,5.228-7.62,6.83-12.01,3.418a3.57,3.57,0,0,0-.493-.25v4.868l1.844.263v3.055Zm7.734-15.962c0,.891,0,1.781,0,2.672a3.183,3.183,0,0,0,2.318,3.295,3.565,3.565,0,0,0,3.955-1.553c1.44-2.237,1.3-7.025-.309-9.159a3.071,3.071,0,0,0-3.544-1.373,3.5,3.5,0,0,0-2.419,3.289C601.609,1550,601.617,1550.946,601.617,1551.889Z" fill="#fa9b35"/>
      <path id="Path_376" data-name="Path 376" d="M566.933,1557.94l1.907.2v3.224c-1.886,0-3.8.042-5.717-.039-.332-.014-.707-.5-.949-.851a19.029,19.029,0,0,1-.989-1.808,6.524,6.524,0,0,1-5.5,3.025c-3.784.045-5.934-1.746-6.254-5.544-.22-2.6-.15-5.233-.2-7.852-.016-.833,0-1.667,0-2.58l-1.956-.309v-3.193h7.708c0,2.03,0,3.95,0,5.87,0,2.254-.031,4.508.028,6.761.058,2.2.728,3.086,2.245,3.18s3.737-1.442,3.8-2.931c.133-3.125.04-6.26.04-9.436l-1.863-.212v-3.153h7.7Z" fill="#fa9b35"/>
      <path id="Path_377" data-name="Path 377" d="M728.3,1552.879H715.239c-.042,2.69,1.091,4.706,2.917,5.308a5.444,5.444,0,0,0,6.326-2.239c.738-1.108.738-1.108,3.006-.064-.954,4.15-6.054,6.67-11.146,5.506-5.334-1.22-8.427-6.435-7.106-11.982a9.679,9.679,0,0,1,12.059-7.2C726.149,1543.364,729.44,1548.229,728.3,1552.879Zm-13.005-3.422h6.909c.1-2.522-1.133-4.131-3.173-4.217C716.751,1545.145,715.464,1546.531,715.3,1549.457Z" fill="#fa9b35"/>
      <path id="Path_378" data-name="Path 378" d="M617.373,1551.816a9.823,9.823,0,1,1,9.751,9.872A9.481,9.481,0,0,1,617.373,1551.816Zm13.76-.032a39.5,39.5,0,0,0-.86-4.414,3.332,3.332,0,0,0-6.28.137,14.314,14.314,0,0,0-.023,8.5,3.339,3.339,0,0,0,6.383-.009A39.456,39.456,0,0,0,631.133,1551.784Z" fill="#fa9b35"/>
      <path id="Path_379" data-name="Path 379" d="M699.442,1545.437v-3.111h8.479v3.2c-2.415-.631-2.7,1.251-3.346,2.757-1.674,3.9-3.4,7.772-5.021,11.691-.447,1.082-1.012,1.6-2.2,1.413a5.425,5.425,0,0,0-1.568,0c-.946.128-1.369-.3-1.725-1.149-1.8-4.3-3.681-8.563-5.528-12.841-.481-1.114-.818-2.4-2.638-1.757v-3.33h11.318v3.144l-3.273.185c1.4,3.269,2.722,6.372,4.123,9.652l4.093-9.628Z" fill="#fa9b35"/>
      <path id="Path_380" data-name="Path 380" d="M650,1545.791c-1.512-.009-3.142,1.6-3.258,3.589-.164,2.808-.042,5.632-.042,8.644h4.328v3.237H638.941V1558.2l1.9-.292v-12.157l-1.9-.219v-3.309a37.925,37.925,0,0,1,5.783.1c.7.11,1.215,1.36,1.94,2.244a12.709,12.709,0,0,1,.985-1.094,5.63,5.63,0,0,1,6.119-1.179,4.508,4.508,0,0,1,2.706,4.555,3.236,3.236,0,1,1-6.471.01C649.991,1546.5,650,1546.147,650,1545.791Z" fill="#fa9b35"/>
      <path id="Path_381" data-name="Path 381" d="M660.262,1545.64l-1.884-.174V1542.3c2.451,0,3.911-1.594,5.253-3.5.363-.514,1.343-.593,2.358-1v4.432h5.72v3.257h-5.72v4.979q0,2.516,0,5.029c0,1.017-.035,2.12,1.233,2.4a2.307,2.307,0,0,0,2.731-1.585c.1-.231.194-.469.3-.731l2.032.27c.262,3.65-2.839,6.379-6.774,5.808-3.532-.513-5.247-2.454-5.252-6.027C660.258,1552.339,660.262,1549.048,660.262,1545.64Z" fill="#fa9b35"/>
      <path id="Path_382" data-name="Path 382" d="M681.934,1557.9l2.016.256v3.133h-9.518c-.545-2.884-.434-3.107,1.732-3.366v-12.247l-1.776-.243v-3.121h7.546Z" fill="#fa9b35"/>
      <path id="Path_383" data-name="Path 383" d="M675.905,1537.665a3.216,3.216,0,0,1,3.2-3.319,3.28,3.28,0,1,1,.081,6.56A3.224,3.224,0,0,1,675.905,1537.665Z" fill="#fa9b35"/>
    </g>
    <g id="Group_584" data-name="Group 584">
      <path id="Path_384" data-name="Path 384" d="M523.594,1590.463a9.192,9.192,0,0,0,6.554.444c2.236-.649,2.736-3.357.885-5.017a14.384,14.384,0,0,0-3.5-2.017c-1.649-.783-3.405-1.348-5.03-2.176-5.168-2.632-4.207-9-.618-11.637,3.8-2.785,10.971-2.5,14.354.8a8.434,8.434,0,0,1,1.924,3.645,3.093,3.093,0,0,1-1.946,3.7,3.163,3.163,0,0,1-3.894-1.126,3.2,3.2,0,0,1,.356-4.164c.158-.187.321-.37.6-.688a8.341,8.341,0,0,0-6.218-.344c-2.03.707-2.224,3.653-.311,5.184a16.524,16.524,0,0,0,3.427,1.855c1.658.769,3.411,1.345,5.025,2.191,4.889,2.566,4.14,8.617.65,11.3-4.082,3.135-11.779,2.811-15.512-.72a5.336,5.336,0,0,1-1.8-4.045,3.136,3.136,0,0,1,2.285-3.2,3.022,3.022,0,0,1,3.6,1.194,3.157,3.157,0,0,1-.071,3.94C524.168,1589.828,523.947,1590.052,523.594,1590.463Z" fill="#fff"/>
      <path id="Path_385" data-name="Path 385" d="M571.625,1592.5v4.92l1.86.22v3.1h-9.577v-3.093l1.806-.224v-18.835l-1.808-.15v-3.336a35.551,35.551,0,0,1,5.413.093c.674.1,1.185,1.26,1.885,2.069.216-.176.558-.451.9-.731,4.431-3.668,10.9-1.786,12.2,3.79a19.489,19.489,0,0,1,.182,7.75C583.31,1594.405,576.528,1596.587,571.625,1592.5Zm-.1-7.729c0,.89-.006,1.78,0,2.67a3.206,3.206,0,0,0,2.336,3.289,3.523,3.523,0,0,0,3.946-1.544c1.425-2.229,1.279-7.076-.308-9.158a3.078,3.078,0,0,0-3.541-1.377,3.57,3.57,0,0,0-2.431,3.293C571.514,1582.888,571.525,1583.83,571.525,1584.773Z" fill="#fff"/>
      <path id="Path_386" data-name="Path 386" d="M713.859,1594.167v-3.081l1.921-.3v-12.189l-1.9-.3v-3.177c1.95,0,3.92-.042,5.885.044.308.014.631.586.874.949.313.466.551.982.929,1.671a6.73,6.73,0,0,1,5.81-3.008c3.338.049,5.379,1.6,5.808,4.945.325,2.533.259,5.117.341,7.679.035,1.093.006,2.189.006,3.391l1.876.25v3.126H725.8v-3.1l1.751-.247c0-3.568.127-7.107-.059-10.629-.08-1.527-1.776-2.185-3.285-1.608a4.7,4.7,0,0,0-2.6,3.8c-.01,2.77,0,5.54,0,8.415l1.852.239v3.131Z" fill="#fff"/>
      <path id="Path_387" data-name="Path 387" d="M560.044,1590.805l1.923.237v3.207c-1.912,0-3.834.042-5.75-.04-.327-.014-.688-.519-.932-.868-.354-.507-.616-1.079-.994-1.76a6.577,6.577,0,0,1-5.521,3c-3.872.037-6.007-1.869-6.267-5.9-.175-2.717-.09-5.452-.118-8.179-.006-.62,0-1.24,0-1.9l-2.014-.317V1575.2h7.714c0,3.746-.013,7.453.009,11.159a12.61,12.61,0,0,0,.221,2.652,2.3,2.3,0,0,0,3.348,1.761,4.362,4.362,0,0,0,2.6-3.775c.01-2.771,0-5.541,0-8.408l-1.931-.278v-3.082h7.714Z" fill="#fff"/>
      <path id="Path_388" data-name="Path 388" d="M605.879,1588.746c-1.975,4.955-7.421,7.106-12.565,5.159a9.933,9.933,0,0,1,7.045-18.568c4.457,1.488,7.419,6.365,6.183,10.429h-13.08c-.016,2.738,1.187,4.787,3.034,5.335,2.681.8,4.74-.141,6.91-3.221Zm-5.28-6.422c-.367-3.071-1.494-4.287-3.751-4.2-2.024.077-3.176,1.507-3.312,4.2Z" fill="#fff"/>
      <path id="Path_389" data-name="Path 389" d="M692.3,1584.688a9.822,9.822,0,1,1,9.738,9.884A9.481,9.481,0,0,1,692.3,1584.688Zm13.76,0a39.651,39.651,0,0,0-.856-4.418,3.332,3.332,0,0,0-6.28.109,14.321,14.321,0,0,0-.032,8.5,3.339,3.339,0,0,0,6.383.019A39.23,39.23,0,0,0,706.061,1584.686Z" fill="#fff"/>
      <path id="Path_390" data-name="Path 390" d="M670.013,1575.109c2.808-.072,5.067.235,6.924,1.855a2.755,2.755,0,0,1,.8,3.409,2.709,2.709,0,0,1-3.092,1.612,2.67,2.67,0,0,1-2.334-2.728c.024-1.13-.486-1.345-1.372-1.368a7.34,7.34,0,0,0-.786,0c-1,.082-2.109.09-2.375,1.338-.281,1.322.551,2.082,1.671,2.486,1.765.636,3.588,1.116,5.34,1.784,3.148,1.2,4.338,3.773,3.322,6.941a5.168,5.168,0,0,1-3.606,3.435,15.18,15.18,0,0,1-8.214.337c-2.51-.6-3.943-2.24-3.865-4.284a2.913,2.913,0,0,1,2.8-2.84,2.739,2.739,0,0,1,2.8,2.624c-.023,1.385.65,1.6,1.72,1.522,1.3-.1,2.89.347,3.329-1.539.329-1.412-.583-2.373-2.747-2.993-1-.287-2.024-.514-3.024-.81-3.432-1.013-4.834-2.854-4.475-5.84.354-2.945,2.414-4.722,5.753-4.936C669.207,1575.074,669.838,1575.109,670.013,1575.109Z" fill="#fff"/>
      <path id="Path_391" data-name="Path 391" d="M640.219,1588.178c1.391-3.261,2.7-6.329,4.111-9.632l-2.656-.2v-3.118h8.341v3.21c-2.264-.7-2.557,1.088-3.169,2.495-1.711,3.939-3.46,7.862-5.093,11.833a2.037,2.037,0,0,1-2.295,1.53c-2.726-.11-2.722-.033-3.8-2.523q-2.649-6.131-5.329-12.246c-.174-.394-.561-1.027-.8-1.006-1.945.176-1.587-1.16-1.584-2.27,0-.311.057-.621.1-1.039h11.249v3.133l-3.177.178Z" fill="#fff"/>
      <path id="Path_392" data-name="Path 392" d="M616.426,1590.925h4.337v3.223h-12.1v-3.074l1.817-.263V1578.6l-1.8-.174v-3.324c1.9,0,3.821-.043,5.736.04.329.014.7.516.939.867a15.3,15.3,0,0,1,.861,1.637,6.155,6.155,0,0,1,5.573-2.869,4.746,4.746,0,0,1,4.33,5.877,3.218,3.218,0,0,1-3.623,2.327,3.148,3.148,0,0,1-2.806-2.914c-.039-.456-.006-.918-.006-1.373-1.475-.05-3.126,1.608-3.226,3.562C616.318,1585.073,616.426,1587.9,616.426,1590.925Z" fill="#fff"/>
      <path id="Path_393" data-name="Path 393" d="M650.555,1575.158h7.691V1590.8l1.961.251v3.094h-9.6v-3.1l1.852-.222v-12.243l-1.9-.3Z" fill="#fff"/>
      <path id="Path_394" data-name="Path 394" d="M688.231,1590.786l2.012.251v3.133h-9.53c-.522-2.893-.417-3.1,1.744-3.368v-12.245l-1.784-.243v-3.122h7.558Z" fill="#fff"/>
      <path id="Path_395" data-name="Path 395" d="M682.193,1570.517a3.218,3.218,0,0,1,3.238-3.287,3.28,3.28,0,1,1,.018,6.56A3.224,3.224,0,0,1,682.193,1570.517Z" fill="#fff"/>
      <path id="Path_396" data-name="Path 396" d="M658.663,1570.469a3.228,3.228,0,0,1-3.207,3.321,3.281,3.281,0,1,1-.081-6.561A3.226,3.226,0,0,1,658.663,1570.469Z" fill="#fff"/>
    </g>
  </g>
</svg>
