<svg xmlns="http://www.w3.org/2000/svg" width="34" height="34" viewBox="0 0 34 34">
  <g id="sad" transform="translate(-0.139 -0.139)">
    <path id="Path_2394" data-name="Path 2394" d="M17,0A17,17,0,1,1,0,17,17,17,0,0,1,17,0Z" transform="translate(0.139 0.139)" fill="#ffd93b"/>
    <path id="Path_2356" data-name="Path 2356" d="M87,69.975A17.029,17.029,0,0,1,56.72,80.666,17.029,17.029,0,0,0,80.666,56.72,17.01,17.01,0,0,1,87,69.975Z" transform="translate(-52.865 -52.865)" fill="#f4c534"/>
    <path id="Path_2357" data-name="Path 2357" d="M163.414,292.336a1.281,1.281,0,0,0,1.619-1.266,6.984,6.984,0,0,0-13.957.012,1.28,1.28,0,0,0,1.609,1.268A21.184,21.184,0,0,1,163.414,292.336Z" transform="translate(-140.944 -265.37)" fill="#3e4347"/>
    <path id="Path_2358" data-name="Path 2358" d="M204.1,355.479a2.567,2.567,0,0,0-2.512-3.127,2.538,2.538,0,0,0-1.8.73,2.609,2.609,0,0,0-1.013-.2,2.575,2.575,0,0,0-2.573,2.573c0,.016,0,.031.005.047A21.056,21.056,0,0,1,204.1,355.479Z" transform="translate(-183.074 -328.832)" fill="#919191"/>
    <path id="Path_2359" data-name="Path 2359" d="M388.281,280.638c0-1.213-2.2-4.942-2.2-4.942s-2.2,3.729-2.2,4.942a2.2,2.2,0,1,0,4.393,0Z" transform="translate(-358.271 -257.275)" fill="#65b1ef"/>
    <g id="Group_593" data-name="Group 593" transform="translate(6.061 3.215)">
      <path id="Path_2360" data-name="Path 2360" d="M292.074,181.056l-1.9-2.074c-2.187-2.378-6.121-2.447-6.164-2.447l-1.08-.009.795-.735a3.528,3.528,0,0,1,3.164-1.107c2.395.467,3.933,3.682,3.994,3.821Z" transform="translate(-270.087 -166.142)" fill="#3e4347"/>
      <path id="Path_2361" data-name="Path 2361" d="M276.028,47.088c4.361,4.905,5.693,5.148,7.194,6.492a7.512,7.512,0,0,1-4.757-1.961A6.761,6.761,0,0,1,276.028,47.088Z" transform="translate(-263.646 -47.088)" fill="#3e4347"/>
      <path id="Path_2362" data-name="Path 2362" d="M89.872,181.056l1.9-2.074c2.187-2.378,6.121-2.447,6.164-2.447l1.08-.009-.795-.735a3.528,3.528,0,0,0-3.164-1.107c-2.395.467-3.933,3.682-3.994,3.821Z" transform="translate(-89.872 -166.142)" fill="#3e4347"/>
      <path id="Path_2363" data-name="Path 2363" d="M133.306,47.088c-4.361,4.905-5.693,5.148-7.194,6.492a7.512,7.512,0,0,0,4.757-1.961A6.756,6.756,0,0,0,133.306,47.088Z" transform="translate(-123.701 -47.088)" fill="#3e4347"/>
    </g>
    <g id="Group_594" data-name="Group 594" transform="translate(27.886 23.236)" opacity="0.2">
      <path id="Path_2364" data-name="Path 2364" d="M419.115,349.2c-.308.366-.756.516-.977.315s-.16-.648.158-1.015.746-.516.977-.315S419.432,348.834,419.115,349.2Z" transform="translate(-418.001 -348.093)" fill="#fff"/>
    </g>
  </g>
</svg>
