<svg xmlns="http://www.w3.org/2000/svg" width="126.876" height="128.666" viewBox="0 0 126.876 128.666">
  <g id="Group_599" data-name="Group 599" transform="translate(-142.562 -271.667)">
    <path id="Path_2365" data-name="Path 2365" d="M116.748,107.539A58.124,58.124,0,1,1,58.623,49.413a58.125,58.125,0,0,1,58.125,58.125Zm0,0" transform="translate(142.062 234.671)" fill="#5cdd58"/>
    <path id="Path_2366" data-name="Path 2366" d="M204.874,49.414a58.557,58.557,0,0,0-9.034.7,58.131,58.131,0,0,1,0,114.847,58.126,58.126,0,1,0,9.03-115.547Zm0,0" transform="translate(-4.189 234.67)" fill="#3cc737"/>
    <path id="Path_2367" data-name="Path 2367" d="M257.835,66.246l-33.19,21.978a11.3,11.3,0,0,1-8.029,1.74,11.341,11.341,0,0,0-8.048,1.736l-4.442,2.944L179.25,57.977l6.1-26.365a27.519,27.519,0,0,0-3.866-21.4,6.579,6.579,0,0,1,10.065-8.357l3.954,3.829a42.256,42.256,0,0,1,10.2,15.636l2.144,5.772,22.078-14.587a7.528,7.528,0,0,1,10.548,2.3,7.627,7.627,0,0,1-2.365,10.341.083.083,0,0,0,.077.146,7.491,7.491,0,0,1,2.691-.5A7.57,7.57,0,0,1,244.98,26a7.53,7.53,0,0,1,3.289,7.781,7.69,7.69,0,0,1-3.156,4.767.162.162,0,0,0-.041.224.006.006,0,0,0,0,0,.16.16,0,0,0,.212.042,7.726,7.726,0,0,1,1.827-.216,7.93,7.93,0,0,1,4.247,1.231,7.4,7.4,0,0,1,2.2,2.155,7.526,7.526,0,0,1-2.122,10.432c-.085.058-.171.116-.256.171a.117.117,0,0,0-.038.146.062.062,0,0,0,.027.027.121.121,0,0,0,.149,0,7.37,7.37,0,0,1,6.387.822,7.67,7.67,0,0,1,2.249,2.229,7.53,7.53,0,0,1-2.118,10.435Zm0,0" transform="translate(8.232 271.667)" fill="#fdd7bd"/>
    <path id="Path_2368" data-name="Path 2368" d="M72.241,259.339l-14,9.273L38.024,282A58.186,58.186,0,0,1,2.676,236.268l23.459-15.535,14.281-9.458a3.573,3.573,0,0,1,4.952,1.01l27.883,42.1a3.577,3.577,0,0,1-1.01,4.955Zm0,0" transform="translate(140.433 113.931)" fill="#2c5583"/>
    <path id="Path_2369" data-name="Path 2369" d="M142.133,259.34l-14,9.273-32.1-47.88,14.281-9.458a3.573,3.573,0,0,1,4.952,1.01l27.883,42.1a3.578,3.578,0,0,1-1.01,4.956Zm0,0" transform="translate(70.541 113.93)" fill="#22446a"/>
    <g id="Group_598" data-name="Group 598" transform="translate(237.605 296.459)">
      <path id="Path_2370" data-name="Path 2370" d="M394.311,99.864l-11.044,5.91a3.577,3.577,0,0,1-4.563-1.027l8.707-5.634a.083.083,0,0,0,.107.041,7.491,7.491,0,0,1,2.691-.5,7.575,7.575,0,0,1,4.1,1.207Zm0,0" transform="translate(-378.703 -98.656)" fill="#fac5aa"/>
      <path id="Path_2371" data-name="Path 2371" d="M420.418,154.845l-10.8,5.777a3.574,3.574,0,0,1-4.564-1.023l8.707-5.635.376-.177a.16.16,0,0,0,.212.042,7.726,7.726,0,0,1,1.827-.216,7.925,7.925,0,0,1,4.246,1.231Zm0,0" transform="translate(-398.43 -139.803)" fill="#fac5aa"/>
      <path id="Path_2372" data-name="Path 2372" d="M449.5,209.62l-9.516,5.091a3.581,3.581,0,0,1-4.564-1.027l7.543-4.881a.12.12,0,0,0,.149-.006,7.376,7.376,0,0,1,6.388.823Zm0,0" transform="translate(-421.165 -180.83)" fill="#fac5aa"/>
    </g>
  </g>
</svg>
