<svg id="good-selected" xmlns="http://www.w3.org/2000/svg" width="72.764" height="72.764" viewBox="0 0 72.764 72.764">
  <circle id="Ellipse_19" data-name="Ellipse 19" cx="36.219" cy="36.219" r="36.219" transform="translate(0 0)" fill="#ffd93b"/>
  <path id="Path_334" data-name="Path 334" d="M119.734,303.444a23.362,23.362,0,0,1-22.644-17.6,1.522,1.522,0,1,1,2.949-.754,20.321,20.321,0,0,0,39.386,0,1.523,1.523,0,1,1,2.951.754A23.358,23.358,0,0,1,119.734,303.444Z" transform="translate(-83.515 -243.736)" fill="#3e4347"/>
  <path id="Path_335" data-name="Path 335" d="M121.713,85.168A36.547,36.547,0,0,1,56.72,108.111,36.547,36.547,0,0,0,108.111,56.72,36.505,36.505,0,0,1,121.713,85.168Z" transform="translate(-48.949 -48.949)" fill="#f4c534"/>
  <ellipse id="Ellipse_20" data-name="Ellipse 20" cx="5.6" cy="6.656" rx="5.6" ry="6.656" transform="translate(18.817 24.467)" fill="#3e4347"/>
  <path id="Path_336" data-name="Path 336" d="M179.184,196.946a1.207,1.207,0,0,1-1.613-.384,1.043,1.043,0,1,1,1.565-1.279A1.211,1.211,0,0,1,179.184,196.946Z" transform="translate(-152.241 -167.255)" fill="#5a5f63"/>
  <ellipse id="Ellipse_21" data-name="Ellipse 21" cx="5.6" cy="6.656" rx="5.6" ry="6.656" transform="translate(42.427 24.467)" fill="#3e4347"/>
  <path id="Path_337" data-name="Path 337" d="M344.544,196.946a1.207,1.207,0,0,1-1.613-.384,1.043,1.043,0,1,1,1.565-1.279A1.211,1.211,0,0,1,344.544,196.946Z" transform="translate(-293.995 -167.255)" fill="#5a5f63"/>
</svg>
