<svg xmlns="http://www.w3.org/2000/svg" width="38.094" height="38.094" viewBox="0 0 38.094 38.094">
  <g id="Group_618" data-name="Group 618" transform="translate(-102 -1080)">
    <g id="Group_616" data-name="Group 616" transform="translate(102 1080)">
      <path id="Path_2226" data-name="Path 2226" d="M19.047,0A19.047,19.047,0,1,1,0,19.047,19.047,19.047,0,0,1,19.047,0Z" fill="#fff"/>
    </g>
    <g id="Group_617" data-name="Group 617" transform="translate(106.421 1083.93)">
      <g id="Group_554" data-name="Group 554" transform="translate(16.199 12.706)">
        <path id="Path_356" data-name="Path 356" d="M641.7,1461.232c-.014-.469-.22-1.148.323-1.3s.626.582.876.933a10.109,10.109,0,0,1,1.639,2.97c.659,2.289-.558,4-2.319,5.516a6.283,6.283,0,0,1-2.079,1.181,19.222,19.222,0,0,0-5.351,2.82c-.468.352-.654.332-.857-.193a4.23,4.23,0,0,1,1.508-4.547c1.66-1.2,3.421-2.291,4.533-3.975.263-.4.485-.251.585.111a2.787,2.787,0,0,1-.626,2.363c-.382.552-.857,1.055-1.314,1.608,2.864-.308,4.965-2.506,4.009-5.427A7.414,7.414,0,0,0,641.7,1461.232Z" transform="translate(-633.739 -1455.879)" fill="#fa9b35"/>
        <path id="Path_357" data-name="Path 357" d="M678.993,1446.484q.091.457.182.913s-.045.059-.045.059l.068.041c.22,1.775-.146,2.873-1.358,3.727a9.993,9.993,0,0,0-.521-4.872c-.449-1.1-.908-2.194-1.272-3.314a1.3,1.3,0,0,1,.815-1.808l.942,2.466Z" transform="translate(-666.821 -1441.229)" fill="#fa9b35"/>
      </g>
      <g id="Group_555" data-name="Group 555" transform="translate(0.555 12.71)">
        <path id="Path_358" data-name="Path 358" d="M570.89,1461.249c.014-.47.216-1.148-.316-1.3s-.612.582-.857.933a10.194,10.194,0,0,0-1.6,2.971c-.646,2.29.544,4,2.266,5.515a6.111,6.111,0,0,0,2.034,1.18,18.665,18.665,0,0,1,5.234,2.818c.458.352.64.332.838-.193a4.281,4.281,0,0,0-1.473-4.546c-1.624-1.2-3.346-2.29-4.433-3.973-.257-.4-.475-.251-.573.112a2.83,2.83,0,0,0,.612,2.363c.374.552.838,1.055,1.285,1.608-2.8-.306-4.856-2.5-3.92-5.425A7.5,7.5,0,0,1,570.89,1461.249Z" transform="translate(-566.509 -1455.897)" fill="#fa9b35"/>
        <path id="Path_359" data-name="Path 359" d="M561.6,1446.506q-.089.457-.178.913s.044.059.044.059l-.067.041c-.216,1.775.142,2.873,1.327,3.726a10.205,10.205,0,0,1,.511-4.872c.44-1.1.889-2.194,1.246-3.315a1.3,1.3,0,0,0-.8-1.808l-.923,2.467Z" transform="translate(-561.339 -1441.25)" fill="#fa9b35"/>
      </g>
      <g id="Group_557" data-name="Group 557" transform="translate(8.392 15.933)">
        <circle id="Ellipse_40" data-name="Ellipse 40" cx="1.544" cy="1.544" r="1.544" transform="translate(4.318)" fill="#2c5583"/>
        <g id="Group_556" data-name="Group 556" transform="translate(0 2.792)">
          <path id="Path_360" data-name="Path 360" d="M603.575,1470.2c0,.871-.185,2.344-.155,3.686,1.342-1.4,4.879-4.564,6.218-4.142a8.471,8.471,0,0,0-3.912-.521,8.1,8.1,0,0,0-2.064.977h-.087a.955.955,0,0,1-.156-.069,6.007,6.007,0,0,0-1.889-.949,8.464,8.464,0,0,0-3.922.442c1.347-.4,4.5,2.832,5.811,4.262.057-1.341.138-2.815.155-3.686" transform="translate(-597.609 -1469.088)" fill="#2c5583"/>
        </g>
      </g>
      <g id="Group_559" data-name="Group 559" transform="translate(11.974 8.788)">
        <circle id="Ellipse_41" data-name="Ellipse 41" cx="0.62" cy="0.62" r="0.62" transform="translate(1.696)" fill="#2c5583"/>
        <g id="Group_558" data-name="Group 558" transform="translate(0 1.081)">
          <path id="Path_361" data-name="Path 361" d="M616.589,1428.58c.016.349-.029.944.01,1.481.511-.589,1.868-1.925,2.413-1.782a3.4,3.4,0,0,0-1.579-.133,3.252,3.252,0,0,0-.809.432h-.035a.4.4,0,0,1-.064-.024,2.408,2.408,0,0,0-.776-.344,3.4,3.4,0,0,0-1.564.254c.533-.185,1.859,1.048,2.413,1.6,0-.539,0-1.131-.01-1.481" transform="translate(-614.185 -1428.099)" fill="#2c5583"/>
        </g>
      </g>
      <g id="Group_561" data-name="Group 561" transform="translate(6.431 12.659)">
        <circle id="Ellipse_42" data-name="Ellipse 42" cx="0.5" cy="0.5" r="0.5" transform="translate(1.412)" fill="#fa9b35"/>
        <g id="Group_560" data-name="Group 560" transform="translate(0 0.878)">
          <path id="Path_362" data-name="Path 362" d="M590.455,1445.463c-.008.282-.08.757-.082,1.191.446-.443,1.618-1.435,2.048-1.287a2.738,2.738,0,0,0-1.261-.2,2.616,2.616,0,0,0-.677.3h-.028a.31.31,0,0,1-.05-.024,1.937,1.937,0,0,0-.6-.323,2.738,2.738,0,0,0-1.273.109c.439-.116,1.431.955,1.844,1.429.03-.433.069-.91.082-1.191" transform="translate(-588.53 -1445.078)" fill="#fa9b35"/>
        </g>
      </g>
      <g id="Group_563" data-name="Group 563" transform="translate(7.543 6.059)">
        <circle id="Ellipse_43" data-name="Ellipse 43" cx="0.5" cy="0.5" r="0.5" transform="translate(1.413)" fill="#fa9b35"/>
        <g id="Group_562" data-name="Group 562" transform="translate(0 0.878)">
          <path id="Path_363" data-name="Path 363" d="M595.6,1414.917c-.008.282-.08.757-.082,1.191.446-.443,1.618-1.435,2.048-1.287a2.737,2.737,0,0,0-1.261-.2,2.619,2.619,0,0,0-.677.3H595.6a.311.311,0,0,1-.05-.024,1.941,1.941,0,0,0-.6-.323,2.739,2.739,0,0,0-1.273.109c.439-.116,1.431.955,1.844,1.429.03-.433.069-.91.082-1.191" transform="translate(-593.677 -1414.532)" fill="#fa9b35"/>
        </g>
      </g>
      <g id="Group_565" data-name="Group 565" transform="translate(19.269 12.668)">
        <circle id="Ellipse_44" data-name="Ellipse 44" cx="0.5" cy="0.5" r="0.5" transform="translate(1.345)" fill="#fa9b35"/>
        <g id="Group_564" data-name="Group 564" transform="translate(0 0.834)">
          <path id="Path_364" data-name="Path 364" d="M649.886,1445.334c.022.281,0,.761.047,1.193.4-.488,1.454-1.6,1.9-1.5a2.742,2.742,0,0,0-1.276-.065,2.62,2.62,0,0,0-.64.37l-.028,0a.3.3,0,0,1-.052-.018,1.95,1.95,0,0,0-.634-.256,2.74,2.74,0,0,0-1.254.246c.424-.163,1.526.8,1.987,1.222-.017-.434-.03-.912-.047-1.193" transform="translate(-647.946 -1444.91)" fill="#fa9b35"/>
        </g>
      </g>
      <g id="Group_567" data-name="Group 567" transform="translate(17.276 6.06)">
        <circle id="Ellipse_45" data-name="Ellipse 45" cx="0.5" cy="0.5" r="0.5" transform="translate(1.404)" fill="#fa9b35"/>
        <g id="Group_566" data-name="Group 566" transform="translate(0 0.894)">
          <path id="Path_365" data-name="Path 365" d="M640.651,1414.979c0,.282-.068.758-.062,1.193.439-.45,1.594-1.461,2.027-1.32a2.741,2.741,0,0,0-1.265-.181,2.619,2.619,0,0,0-.671.309h-.028a.334.334,0,0,1-.05-.023,1.94,1.94,0,0,0-.608-.313,2.739,2.739,0,0,0-1.271.13c.437-.123,1.447.932,1.867,1.4.023-.434.054-.911.062-1.193" transform="translate(-638.722 -1414.61)" fill="#fa9b35"/>
        </g>
      </g>
      <g id="Group_569" data-name="Group 569" transform="translate(0 8.09)">
        <circle id="Ellipse_46" data-name="Ellipse 46" cx="0.684" cy="0.684" r="0.684" transform="translate(1.906)" fill="#2c5583"/>
        <g id="Group_568" data-name="Group 568" transform="translate(0 1.245)">
          <path id="Path_366" data-name="Path 366" d="M561.412,1426.111c0,.386-.074,1.038-.057,1.632.589-.625,2.146-2.036,2.74-1.854a3.744,3.744,0,0,0-1.734-.218,3.574,3.574,0,0,0-.911.439h-.039a.431.431,0,0,1-.069-.03,2.663,2.663,0,0,0-.839-.415,3.75,3.75,0,0,0-1.735.208c.6-.179,2,1.24,2.587,1.868.021-.594.052-1.247.057-1.632" transform="translate(-558.769 -1425.63)" fill="#2c5583"/>
        </g>
      </g>
      <g id="Group_571" data-name="Group 571" transform="translate(24.148 8.105)">
        <circle id="Ellipse_47" data-name="Ellipse 47" cx="0.684" cy="0.684" r="0.684" transform="translate(1.899)" fill="#2c5583"/>
        <g id="Group_570" data-name="Group 570" transform="translate(0 1.24)">
          <path id="Path_367" data-name="Path 367" d="M673.173,1426.16c.006.386-.065,1.039-.041,1.633.584-.631,2.126-2.056,2.722-1.879a3.75,3.75,0,0,0-1.735-.2,3.581,3.581,0,0,0-.907.448h-.039a.4.4,0,0,1-.069-.029,2.664,2.664,0,0,0-.843-.406,3.751,3.751,0,0,0-1.733.225c.594-.185,2.012,1.221,2.6,1.844.016-.594.04-1.247.041-1.633" transform="translate(-670.528 -1425.673)" fill="#2c5583"/>
        </g>
      </g>
      <g id="Group_573" data-name="Group 573" transform="translate(1.774 2.131)">
        <circle id="Ellipse_48" data-name="Ellipse 48" cx="0.684" cy="0.684" r="0.684" transform="translate(1.906)" fill="#2c5583"/>
        <g id="Group_572" data-name="Group 572" transform="translate(0 1.245)">
          <path id="Path_368" data-name="Path 368" d="M569.621,1398.534c0,.386-.075,1.038-.057,1.632.59-.625,2.146-2.036,2.74-1.853a3.749,3.749,0,0,0-1.734-.218,3.573,3.573,0,0,0-.911.439h-.039a.457.457,0,0,1-.069-.03,2.661,2.661,0,0,0-.839-.415,3.754,3.754,0,0,0-1.735.208c.6-.179,2,1.24,2.586,1.869.021-.594.052-1.246.057-1.632" transform="translate(-566.978 -1398.052)" fill="#2c5583"/>
        </g>
      </g>
      <g id="Group_575" data-name="Group 575" transform="translate(22.201 2.757)">
        <circle id="Ellipse_49" data-name="Ellipse 49" cx="0.684" cy="0.684" r="0.684" transform="translate(1.908)" fill="#2c5583"/>
        <g id="Group_574" data-name="Group 574" transform="translate(0 1.242)">
          <path id="Path_369" data-name="Path 369" d="M664.16,1401.419c0,.386-.077,1.038-.061,1.632.591-.624,2.151-2.03,2.745-1.846a3.747,3.747,0,0,0-1.733-.223,3.584,3.584,0,0,0-.912.437h-.039a.419.419,0,0,1-.069-.03,2.658,2.658,0,0,0-.838-.417,3.748,3.748,0,0,0-1.735.2c.6-.177,2,1.245,2.581,1.875.023-.594.056-1.246.061-1.632" transform="translate(-661.517 -1400.934)" fill="#2c5583"/>
        </g>
      </g>
      <g id="Group_577" data-name="Group 577" transform="translate(6.609)">
        <circle id="Ellipse_50" data-name="Ellipse 50" cx="0.404" cy="0.404" r="0.404" transform="translate(1.103)" fill="#fa9b35"/>
        <g id="Group_576" data-name="Group 576" transform="translate(0 0.702)">
          <path id="Path_370" data-name="Path 370" d="M590.918,1385.989c.011.228-.017.614.008.964.331-.384,1.213-1.255,1.568-1.163a2.213,2.213,0,0,0-1.028-.084,2.125,2.125,0,0,0-.526.282h-.023a.276.276,0,0,1-.041-.016,1.566,1.566,0,0,0-.505-.223,2.215,2.215,0,0,0-1.018.167c.346-.121,1.211.68,1.573,1.036,0-.351,0-.736-.008-.964" transform="translate(-589.354 -1385.674)" fill="#fa9b35"/>
        </g>
      </g>
      <g id="Group_579" data-name="Group 579" transform="translate(19.158 0.312)">
        <circle id="Ellipse_51" data-name="Ellipse 51" cx="0.404" cy="0.404" r="0.404" transform="translate(1.099)" fill="#fa9b35"/>
        <g id="Group_578" data-name="Group 578" transform="translate(0 0.695)">
          <path id="Path_371" data-name="Path 371" d="M649,1387.41c.013.227-.013.614.015.964.329-.386,1.2-1.264,1.56-1.174a2.213,2.213,0,0,0-1.028-.077,2.118,2.118,0,0,0-.524.286H649a.318.318,0,0,1-.042-.016,1.564,1.564,0,0,0-.507-.219,2.21,2.21,0,0,0-1.016.174c.345-.123,1.216.671,1.58,1.024-.005-.351-.006-.736-.015-.964" transform="translate(-647.435 -1387.089)" fill="#fa9b35"/>
        </g>
      </g>
      <g id="Group_581" data-name="Group 581" transform="translate(11.154 0.777)">
        <circle id="Ellipse_52" data-name="Ellipse 52" cx="0.831" cy="0.831" r="0.831" transform="translate(2.273)" fill="#fa9b35"/>
        <g id="Group_580" data-name="Group 580" transform="translate(0 1.449)">
          <path id="Path_372" data-name="Path 372" d="M613.609,1393.371c.022.468-.038,1.264.013,1.984.684-.789,2.5-2.579,3.233-2.388a4.558,4.558,0,0,0-2.115-.178,4.369,4.369,0,0,0-1.084.579l-.047,0a.541.541,0,0,1-.086-.033,3.234,3.234,0,0,0-1.039-.461,4.554,4.554,0,0,0-2.1.34c.714-.248,2.491,1.4,3.234,2.138,0-.722,0-1.516-.013-1.984" transform="translate(-610.389 -1392.726)" fill="#fa9b35"/>
        </g>
      </g>
    </g>
  </g>
</svg>
