<svg id="not_good-selected" data-name="not good-selected" xmlns="http://www.w3.org/2000/svg" width="72.764" height="72.764" viewBox="0 0 72.764 72.764">
  <path id="Path_2395" data-name="Path 2395" d="M36.215,0A36.215,36.215,0,1,1,0,36.215,36.215,36.215,0,0,1,36.215,0Z" transform="translate(0 0)" fill="#ffd93b"/>
  <path id="Path_345" data-name="Path 345" d="M121.719,85.171a36.55,36.55,0,0,1-65,22.946,36.551,36.551,0,0,0,51.4-51.4A36.509,36.509,0,0,1,121.719,85.171Z" transform="translate(-48.956 -48.956)" fill="#ffd93b"/>
  <g id="Group_540" data-name="Group 540" transform="translate(15.302 36.961)">
    <path id="Path_346" data-name="Path 346" d="M201.406,373.375a1.893,1.893,0,0,1-1.9,1.9H181.487a1.9,1.9,0,1,1,0-3.806H199.5A1.9,1.9,0,0,1,201.406,373.375Z" transform="translate(-169.58 -355.732)" fill="#3e4347"/>
    <path id="Path_347" data-name="Path 347" d="M109.841,261.29c.893-.525,3.536,2.307,7.687,2.462,4.3.16,6.793-2.988,7.687-2.462,1.112.381-.4,7.646-7.687,7.673C110.247,268.936,108.728,261.672,109.841,261.29Z" transform="translate(-109.513 -261.225)" fill="#3e4347"/>
  </g>
  <path id="Path_348" data-name="Path 348" d="M92.118,186.733a1.522,1.522,0,1,1,.484-3.006c8.561,1.375,11.163-4.74,11.188-4.8a1.523,1.523,0,1,1,2.821,1.149C104.894,184.282,99.5,187.919,92.118,186.733Z" transform="translate(-78.202 -152.901)" fill="#3e4347"/>
  <path id="Path_349" data-name="Path 349" d="M305.917,261.29c-.893-.525-3.536,2.307-7.687,2.462-4.3.16-6.793-2.988-7.687-2.462-1.112.381.4,7.646,7.687,7.673C305.51,268.936,307.029,261.672,305.917,261.29Z" transform="translate(-249.116 -224.264)" fill="#3e4347"/>
  <path id="Path_350" data-name="Path 350" d="M309.994,180.056a1.523,1.523,0,0,1,2.819-1.156c.114.274,2.73,6.17,11.191,4.811a1.522,1.522,0,0,1,.484,3.006C317.159,187.9,311.725,184.3,309.994,180.056Z" transform="translate(-265.973 -152.885)" fill="#3e4347"/>
</svg>
