<svg xmlns="http://www.w3.org/2000/svg" width="72.024" height="72" viewBox="0 0 72.024 72">
  <g id="ok-selected" transform="translate(0.165 -0.111)">
    <circle id="Ellipse_34" data-name="Ellipse 34" cx="36" cy="36" r="36" transform="translate(-0.165 0.111)" fill="#ffd93b"/>
    <path id="Path_351" data-name="Path 351" d="M119.832,84.345A35.489,35.489,0,0,1,56.72,106.624a35.49,35.49,0,0,0,49.9-49.9A35.449,35.449,0,0,1,119.832,84.345Z" transform="translate(-47.973 -48.285)" fill="#f4c534"/>
    <g id="Group_541" data-name="Group 541" transform="translate(19.788 23.992)">
      <path id="Path_352" data-name="Path 352" d="M173.187,332.41a1.928,1.928,0,0,1-1.93,1.93h-27.9a1.93,1.93,0,1,1,0-3.859h27.9A1.928,1.928,0,0,1,173.187,332.41Z" transform="translate(-140.723 -308.087)" fill="#3e4347"/>
      <circle id="Ellipse_35" data-name="Ellipse 35" cx="5.288" cy="5.288" r="5.288" fill="#3e4347"/>
    </g>
    <ellipse id="Ellipse_36" data-name="Ellipse 36" cx="1.388" cy="0.898" rx="1.388" ry="0.898" transform="translate(27.424 28.77) rotate(-126.653)" fill="#5a5f63"/>
    <circle id="Ellipse_37" data-name="Ellipse 37" cx="5.288" cy="5.288" r="5.288" transform="translate(42.374 23.992)" fill="#3e4347"/>
    <ellipse id="Ellipse_38" data-name="Ellipse 38" cx="1.388" cy="0.898" rx="1.388" ry="0.898" transform="matrix(-0.597, -0.802, 0.802, -0.597, 50.008, 28.775)" fill="#5a5f63"/>
  </g>
</svg>
