<svg xmlns="http://www.w3.org/2000/svg" width="72.525" height="72.764" viewBox="0 0 72.525 72.764">
  <g id="very_good-selected" data-name="very good-selected" transform="translate(-333 -582)">
    <g id="in-love" transform="translate(333 582)">
      <circle id="Ellipse_39" data-name="Ellipse 39" cx="36.263" cy="36.263" r="36.263" transform="translate(0 0)" fill="#ffd93b"/>
      <g id="Group_542" data-name="Group 542" transform="translate(9.215 16.589)">
        <path id="Path_353" data-name="Path 353" d="M84.6,109.97a6.5,6.5,0,0,0-5.379,2.82l-.249.317-.167-.212a6.414,6.414,0,0,0-5.391-2.924,6.222,6.222,0,0,0-6.433,6.432c0,5.5,9.962,13.613,10.688,14.2a1.835,1.835,0,0,0,2.536,0c.729-.589,10.826-8.826,10.826-14.2A6.222,6.222,0,0,0,84.6,109.97Z" transform="translate(-66.985 -109.97)" fill="#e24b4b"/>
        <path id="Path_354" data-name="Path 354" d="M269.169,109.97a6.5,6.5,0,0,0-5.379,2.82l-.249.317-.167-.212a6.413,6.413,0,0,0-5.391-2.924,6.222,6.222,0,0,0-6.433,6.432c0,5.5,9.962,13.613,10.688,14.2a1.835,1.835,0,0,0,2.536,0c.728-.588,10.825-8.826,10.825-14.2A6.221,6.221,0,0,0,269.169,109.97Z" transform="translate(-223.311 -109.97)" fill="#e24b4b"/>
      </g>
      <path id="Path_355" data-name="Path 355" d="M148.989,313.7a22.666,22.666,0,0,1-32.659-.137c-1.285-1.328-3.307.7-2.024,2.024a25.564,25.564,0,0,0,36.707.138c1.294-1.317-.729-3.342-2.024-2.024Z" transform="translate(-97.503 -265.455)" fill="#333"/>
    </g>
    <path id="Path_2396" data-name="Path 2396" d="M121.491,85.071A36.422,36.422,0,0,1,56.72,107.936,36.423,36.423,0,0,0,107.936,56.72,36.381,36.381,0,0,1,121.491,85.071Z" transform="translate(284.029 533.272)" fill="#f4c534"/>
  </g>
</svg>
